<?xml version="1.0" encoding="UTF-8"?>
<svg id="_レイヤー_1" data-name="レイヤー 1" xmlns="http://www.w3.org/2000/svg" version="1.1" viewBox="0 0 512 512">
  <defs>
    <style>
      .cls-1 {
        fill: #fff;
        stroke-width: 0px;
      }
    </style>
  </defs>
  <path class="cls-1" d="M195.4,171.7l50.9-17.6-40.3-43.6-24.2,47.3c4.8,5.1,9.5,10.3,13.5,13.9Z"/>
  <polygon class="cls-1" points="169.4 180.6 191.7 173.2 179.6 160.2 169.4 180.6"/>
  <rect class="cls-1" x="376.6" y="-266.8" width="60.6" height="475" transform="translate(699.1 255.3) rotate(-131.6)"/>
  <circle class="cls-1" cx="145.5" cy="238.4" r="27.5"/>
  <circle class="cls-1" cx="386.5" cy="238.4" r="27.5"/>
  <path class="cls-1" d="M266.3,391.7c-13,0-26.1-1.3-39-3.9l-37.7-7.5c-5.4-1.1-8.9-6.4-7.8-11.8,1.1-5.4,6.4-8.9,11.8-7.8l37.7,7.5c23.4,4.7,47.2,4.7,70.6,0l36.7-7.4c5.4-1.1,10.7,2.4,11.8,7.8,1.1,5.4-2.4,10.7-7.8,11.8l-36.7,7.4c-13.1,2.7-26.3,4-39.5,4Z"/>
</svg>