<?xml version="1.0" encoding="UTF-8"?>
<svg id="_レイヤー_1" data-name="レイヤー 1" xmlns="http://www.w3.org/2000/svg" version="1.1" viewBox="0 0 512 512">
  <defs>
    <style>
      .cls-1 {
        fill: #fff;
        stroke-width: 0px;
      }
    </style>
  </defs>
  <path class="cls-1" d="M157.9,237.2c0,3.7-.2,7.5-1.5,10.7s-3.5,6.6-6,9.1-5.8,4.5-9.2,5.9-6.9,2.2-10.7,2.2-7.3-1.2-10.5-2.5-6.4-3.4-9-5.9-4.5-5.6-5.9-9-1.6-6.8-1.6-10.5.3-7.3,1.6-10.5,3.5-6.4,6-8.9,5.6-4.4,9-5.8,6.7-2.7,10.5-2.7,7.1,1.7,10.3,3,6.3,3.2,8.9,5.7,5,5.2,6.4,8.6,1.7,6.9,1.7,10.6Z"/>
  <path class="cls-1" d="M398.6,237.2c0,3.7.1,7.5-1.2,10.7s-3.9,6.2-6.4,8.7-5.5,4.6-8.9,6-6.8,2.5-10.5,2.5-7.2-1.4-10.5-2.7-6.1-3.6-8.7-6.1-5.1-5.2-6.5-8.5-1.9-6.9-1.9-10.6.5-7.4,1.9-10.6,3.7-6.2,6.3-8.8,5.5-4.7,8.8-6.1,6.8-2.2,10.5-2.2,7.4.5,10.7,1.9,6.2,3.8,8.7,6.4,4.5,5.6,5.9,9,1.8,6.7,1.8,10.5Z"/>
  <path class="cls-1" d="M251.3,391.7c-4.4,0-8.7-1-13.1-1.3-4.3-.3-8.7-.8-13-1.4s-8.5-2.1-12.8-2.9c-6.3-1.3-6.6.2-12.9-1s-5.9-3.3-12.2-4.6c-6.3-1.3-6.4-.8-12.7-2.1-5.4-1.1-9.2-5.6-8.1-11,1.1-5.4,6.6-9.6,12-8.5,6.3,1.3,6.1,2.2,12.4,3.5s6.2,1.8,12.5,3c6.3,1.3,6.5.2,12.8,1.5,3.9.8,7.6,2.3,11.5,2.8s7.9.5,11.9.8,7.9,1.2,11.9,1.2,7.8-2.7,11.7-3,8,.8,11.9.3,7.6-2.1,11.5-2.9c6.1-1.2,6.4,0,12.5-1.2,6.1-1.2,6.2-1,12.3-2.2s6.1-1.4,12.2-2.6c5.4-1.1,11.1,1.8,12.2,7.2,1.1,5.4-3,10.6-8.4,11.7-6.1,1.2-6.2.8-12.3,2s-6,1.7-12.2,2.9-5.8,2.8-11.9,4.1c-4.3.9-9,0-13.4.6s-8.8-.1-13.2.2-8.7,3-13.1,3Z"/>
  <path class="cls-1" d="M233.8,79.1c-29.4,40.3-75.3,69.1-124.6,76.8,54.1-1,106.3,25.6,160.2,21.7,20.9-1.5,42.3-8.3,56.9-23.4,14.5-15.1,20.2-39.8,9.3-57.7-5-8.2-12.9-14.3-20.9-19.7-12.1-8.1-25.4-15.1-39.9-16.4s-33.5,6.2-41,18.6h0Z"/>
  <path class="cls-1" d="M332.5-26.8c-12.4,12.4-36.5,38.8-49.9,59.3-2.2,3.3-5.7,5.6-8.5,8.4l-1.1,1.9c34.4,13.8,63.5,37.8,95.1,57.3l.6-1.3C393.3,66.7,437.8-.4,460.5-33.8"/>
</svg>