<?xml version="1.0" encoding="UTF-8"?>
<svg id="_レイヤー_1" data-name="レイヤー 1" xmlns="http://www.w3.org/2000/svg" version="1.1" viewBox="0 0 512 512">
  <defs>
    <style>
      .cls-1 {
        fill: #fff;
        stroke-width: 0px;
      }
    </style>
  </defs>
  <path class="cls-1" d="M258.5,391.1c-6.5,0-12.9.9-19.2.4s-12.7-1.8-19.1-3.1c-8.9-2.9-8.8-3.3-17.5-6.6s-9.1-2.2-17.9-5.1c-5.4-1.1-5.6-8.3-4.5-13.7,1.1-5.4,3.7-9.1,9.2-8,9.4,1.9,8.9,4.6,18.3,6.5,9.4,1.9,10.6-4,20-2.1,11.9,2.4,18.7,1.8,26.9-.5s15.9-4.3,27.4-6.7c9.2-3.6,10-1.9,18.7-6.4,8.8-4.5,8.1-5.7,17.1-9.7,5.4-1.1,19.6-3.8,20.7,1.6.5,2.7-9.1,10-14.3,17.7-5.2,7.7-8.3,17.3-11,17.9-5.7,4.2-5.5,4.4-11.6,8.1-6.5,1.3-13.2,6.5-20.7,8.3s-15.8,1.2-22.5,1.2Z"/>
  <path class="cls-1" d="M128.3,213.1c1.7-.3,3.4-1.1,5.2-1.1,3.6,0,7.3.6,10.5,1.8s6.4,3.4,8.9,5.7,4.8,5.3,6.3,8.5,1.8,6.7,1.8,10.4-.7,7.1-2.1,10.2-3.6,6-6.2,8.4-5.7,3.8-9.1,5.1c-3.2,1.2-6.5,2.3-10.1,2.3s-6-.8-8.9-1.9-5.7-2.8-8-4.3c-4.8-5.6-5.3-5.2-9.6-11.3-.9-2.6-.5-5.7-.5-8.6s.6-7.2,2.2-10.4,3.3-6.5,6.1-8.9"/>
  <path class="cls-1" d="M-6,360c.5-8.8,20.4-34.4,27.2-40,8.4-7,16.9-14.1,26.9-18.2,9.2-3.8,20.4-6.7,26.4-12.7,9-6,14.4-6.2,22.9-9.7,3.7-1.5,6.8-6.5,9.6-9.3,9-9,9.1-8.8,10.5-16,.4-2,.6-5,0-7s-2-2-2-2h-3c-3,1-3.3,1.3-5.7,2.5-6,3.1-12.3,5.7-18.6,8.1-3.6,1.3-6.9,3.1-10.7,2.5l-3-1c-2.9-2.8-1.2-4.8-.9-8.9s2-7.9,3.8-11.6c3.8-7.8,9.2-15.6,17.3-18.6,6.1-2.2,12.9-1.4,18.9.9,5.7,2.2,6.7,4.5,12.8,5.2.7,0,5.6-.4,6-1,.3-.4,1.1-1.5,1-2-.4-2.9-3-6-5-8l-4-3c-5-4-5.9-5.2-12.6-8.6-7.8-3.9-17-3.7-25.6-2.7-9.4,1.1-18.9,3.1-27,7.9-12.5,7.5-20.1,20.7-28.1,32.9s-17.9,24.5-32,28.2"/>
  <path class="cls-1" d="M379.8,212.8c-1.7-.3-3.5.1-5.3.1-3.6,0-6.9.7-10.1,1.9s-6.3,2.9-8.8,5.3-4.6,5.2-6,8.3-2.6,6.4-2.6,10,.9,7,2.3,10.2,3.5,6.1,6.1,8.5,5.4,4.6,8.7,5.9,6.8,1.4,10.4,1.4,6-.7,8.9-1.8,6-2.5,8.2-4c4.8-5.6,4.3-6,8.5-12.1.9-2.6,2.4-5.2,2.4-8.1s-1.1-7.5-2.6-10.7-4.3-5.9-7-8.3"/>
  <path class="cls-1" d="M514,360c-.5-8.8-20.4-34.4-27.2-40-8.4-7-16.9-14.1-26.9-18.2-9.2-3.8-20.4-6.7-26.4-12.7-9-6-14.4-6.2-22.9-9.7-3.7-1.5-6.8-6.5-9.6-9.3-9-9-9.1-8.8-10.5-16-.4-2-.6-5,0-7s2-2,2-2h3c3,1,3.3,1.3,5.7,2.5,6,3.1,12.3,5.7,18.6,8.1,3.6,1.3,6.9,3.1,10.7,2.5l3-1c2.9-2.8,1.2-4.8.9-8.9s-2-7.9-3.8-11.6c-3.8-7.8-9.2-15.6-17.3-18.6-6.1-2.2-12.9-1.4-18.9.9-5.7,2.2-6.7,4.5-12.8,5.2-.7,0-5.6-.4-6-1-.3-.4-1.1-1.5-1-2,.4-2.9,3-6,5-8l4-3c5-4,5.9-5.2,12.6-8.6,7.8-3.9,17-3.7,25.6-2.7,9.4,1.1,18.9,3.1,27,7.9,12.5,7.5,20.1,20.7,28.1,32.9s17.9,24.5,32,28.2"/>
</svg>